# xmcd CD database file
#
# Track frame offsets:
#	150
#	12517
#	26445
#	36960
#	95949
#	112854
#	127457
#	147447
#	176502
#	194426
#	241005
#	264855
#	303461
#	324304
#
# Disc length: 4500 seconds
#
# Revision: 0
# Processed by: cddbd v1.5.1PL2 Copyright (c) Steve Scherf et al.
# Submitted via: CDex 1.50
#
DISCID=c211920e
DTITLE=Dizzy Gillespie - The Verve Phillips Small Group Sessions 5
DYEAR=2006
DGENRE=Jazz
TTITLE0=Pergante Ao Joao
TTITLE1=Me-Da-Dum Dineriero Ahi (Give Me Some Money There)
TTITLE2=I Shall Never Forget
TTITLE3=Mount Olive
TTITLE4=Oo-Shoo-Be-Doo-Be
TTITLE5=Lady Be Good
TTITLE6=In A Shanty In Old Shanty Town
TTITLE7=Careless Love
TTITLE8=Gee Baby, Ain't I Good To You
TTITLE9=Chega De Saudade ( No More Blues)
TTITLE10=One Note Samba
TTITLE11=Here It Is
TTITLE12=Ole (aka For The Gypsies)
TTITLE13=Early Mornin' Blues
EXTD=YEAR: 2006
EXTT0=
EXTT1=
EXTT2=
EXTT3=
EXTT4=
EXTT5=
EXTT6=
EXTT7=
EXTT8=
EXTT9=
EXTT10=
EXTT11=
EXTT12=
EXTT13=
PLAYORDER=
